<svg width="92" height="19" viewBox="0 0 92 19" fill="none" xmlns="http://www.w3.org/2000/svg">
<g clip-path="url(#clip0_1_2)">
<path d="M11 0L22.2583 19.5H-0.25833L11 0Z" fill="white"/>
<path d="M42.075 2.875C41.125 2.875 40.2667 3.04167 39.5 3.375C38.7333 3.69167 38.0833 4.16667 37.55 4.8C37.0167 5.41667 36.6083 6.175 36.325 7.075C36.0417 7.95833 35.9 8.95833 35.9 10.075C35.9 11.5417 36.125 12.8167 36.575 13.9C37.0417 14.9833 37.725 15.8167 38.625 16.4C39.5417 16.9833 40.6833 17.275 42.05 17.275C42.8333 17.275 43.575 17.2083 44.275 17.075C44.975 16.9417 45.6583 16.775 46.325 16.575V18.525C45.6583 18.775 44.9667 18.9583 44.25 19.075C43.55 19.1917 42.7083 19.25 41.725 19.25C39.9083 19.25 38.3917 18.875 37.175 18.125C35.9583 17.375 35.0417 16.3083 34.425 14.925C33.825 13.5417 33.525 11.9167 33.525 10.05C33.525 8.7 33.7083 7.46667 34.075 6.35C34.4583 5.23333 35.0083 4.26667 35.725 3.45C36.4583 2.63333 37.3583 2.00833 38.425 1.575C39.4917 1.125 40.7167 0.899999 42.1 0.899999C43.0167 0.899999 43.9 0.991666 44.75 1.175C45.6 1.35833 46.3583 1.61667 47.025 1.95L46.125 3.85C45.575 3.6 44.9583 3.375 44.275 3.175C43.6083 2.975 42.875 2.875 42.075 2.875ZM50.2209 19V1.15H63.6209V19H61.3959V3.125H52.4709V19H50.2209ZM73.532 19H67.082V17.7L69.182 17.225V2.95L67.082 2.45V1.15H73.532V2.45L71.432 2.95V17.225L73.532 17.7V19ZM76.9787 19V1.15H90.3787V19H88.1537V3.125H79.2287V19H76.9787Z" fill="white"/>
</g>
<defs>
<clipPath id="clip0_1_2">
<rect width="92" height="19" fill="white"/>
</clipPath>
</defs>
</svg>
